<svg xmlns="http://www.w3.org/2000/svg" xmlns:xlink="http://www.w3.org/1999/xlink" width="158" zoomAndPan="magnify" viewBox="0 0 118.5 48.75" height="65" preserveAspectRatio="xMidYMid meet" version="1.0"><defs><clipPath id="d239ac6404"><path d="M 18.796875 2.382812 L 40.25 2.382812 L 40.25 35.566406 L 18.796875 35.566406 Z M 18.796875 2.382812 " clip-rule="nonzero"/></clipPath><clipPath id="0ed74013c7"><path d="M 19.402344 33.308594 L 18.796875 23.925781 L 19.121094 23.882812 C 20.792969 29.40625 24.929688 34.792969 29.523438 34.792969 C 33.191406 34.792969 38.160156 33.308594 38.160156 28.523438 C 38.160156 24.765625 34.632812 22.953125 29.710938 20.957031 C 24.464844 18.820312 19.636719 16.453125 19.636719 10.417969 C 19.636719 5.449219 23.535156 2.382812 29.199219 2.382812 L 38.761719 2.382812 L 38.761719 12.367188 L 38.4375 12.367188 C 38.4375 10.710938 36.164062 3.082031 28.6875 3.082031 C 25.902344 3.082031 22.28125 4.84375 22.28125 8.835938 C 22.28125 13.203125 26.085938 15.058594 30.960938 16.914062 C 36.023438 18.863281 40.246094 20.910156 40.246094 26.339844 C 40.246094 32.609375 36.300781 35.488281 29.570312 35.488281 C 23.394531 35.488281 20.515625 34 19.402344 33.304688 " clip-rule="nonzero"/></clipPath><clipPath id="2f5d7194c8"><path d="M 46.734375 2.355469 L 70.460938 2.355469 L 70.460938 35.570312 L 46.734375 35.570312 Z M 46.734375 2.355469 " clip-rule="nonzero"/></clipPath><clipPath id="422dbc3ee7"><path d="M 68.808594 30.480469 C 68.792969 30.445312 68.773438 30.40625 68.757812 30.371094 C 68.707031 30.253906 68.65625 30.128906 68.617188 30.007812 L 64.292969 18.089844 L 61.492188 10.386719 L 58.585938 2.382812 L 54.652344 2.382812 L 55.433594 4.535156 L 55.429688 4.546875 L 55.425781 4.550781 L 48.421875 23.644531 C 45.976562 30.28125 45.765625 35.492188 51.070312 35.492188 C 57.351562 35.492188 60.746094 28.394531 62.5625 24.152344 L 66.441406 34.824219 L 70.386719 34.824219 Z M 51.558594 31.777344 C 47.890625 31.777344 47.535156 27.59375 49.300781 23.296875 L 55.808594 5.585938 L 59.25 15.042969 L 61.523438 21.3125 L 62.226562 23.25 C 59.796875 28.023438 55.890625 31.777344 51.558594 31.777344 " clip-rule="nonzero"/></clipPath><clipPath id="c2f664846b"><path d="M 71.296875 2.355469 L 80.789062 2.355469 L 80.789062 47.710938 L 71.296875 47.710938 Z M 71.296875 2.355469 " clip-rule="nonzero"/></clipPath><clipPath id="f7cef72fe8"><path d="M 80.757812 2.382812 L 73.816406 2.382812 L 73.816406 2.707031 C 75.945312 2.707031 77.054688 4.328125 77.054688 7.335938 L 77.035156 36.765625 C 77.035156 42.585938 74.601562 46.902344 71.414062 47.160156 L 71.414062 47.632812 C 76.609375 47.488281 80.742188 42.65625 80.742188 36.765625 Z M 80.757812 2.382812 " clip-rule="nonzero"/></clipPath><clipPath id="69e5367ff5"><path d="M 85.867188 2.382812 L 92.808594 2.382812 L 92.808594 34.839844 L 85.867188 34.839844 Z M 85.867188 2.382812 " clip-rule="nonzero"/></clipPath><clipPath id="34552d1503"><path d="M 85.867188 2.382812 L 92.808594 2.382812 L 92.808594 34.824219 L 89.105469 34.824219 L 89.105469 7.335938 C 89.105469 4.328125 87.996094 2.710938 85.867188 2.710938 Z M 85.867188 2.382812 " clip-rule="nonzero"/></clipPath></defs><g clip-path="url(#d239ac6404)"><g clip-path="url(#0ed74013c7)"><path fill="#000000" d="M 18.796875 2.382812 L 40.25 2.382812 L 40.25 35.484375 L 18.796875 35.484375 Z M 18.796875 2.382812 " fill-opacity="1" fill-rule="nonzero"/></g></g><g clip-path="url(#2f5d7194c8)"><g clip-path="url(#422dbc3ee7)"><path fill="#000000" d="M 45.898438 1.515625 L 81.625 1.515625 L 81.625 48.550781 L 45.898438 48.550781 Z M 45.898438 1.515625 " fill-opacity="1" fill-rule="nonzero"/></g></g><g clip-path="url(#c2f664846b)"><g clip-path="url(#f7cef72fe8)"><path fill="#000000" d="M 45.898438 1.515625 L 81.625 1.515625 L 81.625 48.550781 L 45.898438 48.550781 Z M 45.898438 1.515625 " fill-opacity="1" fill-rule="nonzero"/></g></g><g clip-path="url(#69e5367ff5)"><g clip-path="url(#34552d1503)"><path fill="#000000" d="M 85.867188 2.382812 L 92.808594 2.382812 L 92.808594 34.839844 L 85.867188 34.839844 Z M 85.867188 2.382812 " fill-opacity="1" fill-rule="nonzero"/></g></g></svg>